<mxfile host="app.diagrams.net" modified="2022-09-19T07:52:51.590Z" agent="5.0 (Windows NT 10.0; Win64; x64) AppleWebKit/537.36 (KHTML, like Gecko) Chrome/105.0.0.0 Safari/537.36" etag="WvY2Twj5g3vd5B0nnR7k" version="20.3.0" type="github">
  <diagram id="1SvKQS_2Lh-dWrKrwmnV" name="Sayfa -1">
    <mxGraphModel dx="862" dy="393" grid="1" gridSize="10" guides="1" tooltips="1" connect="1" arrows="1" fold="1" page="1" pageScale="1" pageWidth="827" pageHeight="1169" math="0" shadow="0">
      <root>
        <mxCell id="0" />
        <mxCell id="1" parent="0" />
        <mxCell id="462g3XgbdRgyeNSREBQg-1" value="" style="shape=image;verticalLabelPosition=bottom;labelBackgroundColor=#FFFFFF;verticalAlign=top;aspect=fixed;imageAspect=0;image=data:image/png,iVBORw0KGgoAAAANSUhEUgAAAgAAAAIACAYAAAD0eNT6AAAABHNCSVQICAgIfAhkiAAAAAlwSFlzAAAOxAAADsQBlSsOGwAAABl0RVh0U29mdHdhcmUAd3d3Lmlua3NjYXBlLm9yZ5vuPBoAAB0kSURBVHic7d17kJ1nfdjx33POWe1KtqybZXwFmztDm2RCMBA3XJIpJe5Qx8ZyjGMoNGkYrsZ2HDJp0uqPTiY1EAcn04RhUhpiQiqwAmlKEs8A4tImDU24JICNHezgG7allfaivZ73ffqHbSLbuqyk3fPsnufzmdGMLO2e3zOz1p7vPuc87xsBAAAAAAAAAAAAAAAAAAAAAAAAAAAArKC00gN27NixrtPpPCu63Re0OT+3E7E1ct6UU9oYEb2Vng8AR7PY778wN81Ym3O/zXkh9/tTi/3+1OLi4lTk3K7w+H6b0lQnYiLnPJ4j7sidzu1P27LlHz7+8Y8vrOTgFQmAHVdd9UMp55+MiB+PlH40ct6wEnMAYCUtLizEwmO/FhcXBzY3R8ykiP8dEZ9NOf/Z5z73ua8t94xlC4DXv/71pzcR/zYe/fXPl+txAWA1aJom5mZnY3Z2Ntp2pTcGnihHfL2T0u/npvnInj179i7HY550AFz6hjecMdI0b4ucr42I05ZhTQCwqs3NzcXB6elommbQow/mlH6vm/ONn/3sZ+8/mQc64QB405veNDazsPBLkfN7ImLsZBYBAGtNzjnmZmdj+uDByAPeEYiI2ZTSr+emuXHPnj1zJ/IAJxQAV1555U+0KX0wIp51Ip8PAMOibduYmpyM+fn5EuPvzCm95fOf+cznjvcTjysAduzY0U0jI78aOf9KRHSPdxgADKu5ubmYmpyMnPOgR+eIuHH7tm3/4eMf//iSX5NYcgBcddVVWxZz3p0iXnkiqwOAYbe4uBgTExPRDv69AZEjPpva9nV79uw5sJSPX1IA7Nix48zU6/15RPzgSa0OAIZc0zRxYP/+Em8QjIj4RrTta/bs2XPfsT7wmAGwY8eOp6de7/MRcf5yrAwAhl1u2xjfvz+afr/A8Hx3OzLyii/cdtu9R/uwztH+8tI3vnHbYz/5n7+cawOAYZY6ndiyZUt0ugXeLpfSBZ1+/zOvfvWrzzjahx0xAN70pjeNjSwufjoiXrDsiwOAIdfpdGLzli2ROkf9WXulPGehaT71yle+8ojH9I+4qtm5uQ9ExIUrsiwAqECv243TTit0jbycX5q73fcf6a8Puzdxxetff0Wk9OsrtyoAqEOv14uc80DvJfC4FPHiC84//8577rnn7w7zd0906RvecMZIv397RGwZyOoAoAL79u4tdTJg/7pe7/m33Xbbw4f+4VNeAhjp998bnvwBYFltLPVSQMSWxX7/Kbv6T9gBuOJnfuaiaNsvPvnPAYCTNzExEfNzJ3Tp/pOVc0oXff4zn/nLx//giTsAbfufwpM/AKyIU045pdTolNr2Px76B98PgB1XXXVhRPzLgS8JACrR6/Vi3ehomeEpveYVP/ETL378PzuH/Oa6MisCgHps2LCh2OxOztc+/vsUEbFjx45Nqdd7MCLWF1sVAFSi4ImAuWjbs/bs2XOgExHR6fWuDE/+ADAQo2NHvEDfShuLbvd1EY+9BJAjLi21EgCozVi5AIic82UREWnHjh3rUq83HhHF3poIADXJEbHvkUeibdsS46enJia2drrd7kvCkz8ADEyKiJF160qNP3XTpk0v7jQpvfjYHwsALKeRXq/Y7Dbiwk4n5+cVWwEAVKpbMAAi4nmdnNLzS64AAGpUPAAi4pySKwCAGnU7T7kf3yCd14mIYrcnAoBapVT01jsbOxFxaskVAECtUqFdgByxsRelrgCYUmx6+X8uMhoAIiJydyzGH/pOLC4O/ha9bdtGjP9WRHtw4LNTxIZy70DIEb1NFxQbDwAREe3UbLQLgw+AiIjodMvMjUPuBggA1EMAAECFBAAAVEgAAECFBAAAVEgAAECFBAAAVEgAAECFBAAAVKhcAJS9CQIAVM0OAABUSAAAQIUEAABUSAAAQIUEAABUSAAAQIUEAABUSAAAQIUEAABUSAAAQIWKBUByKWAAKMYOAABUSAAAQIUEAABUSAAAQIUEAABUSAAAQIUEAABUSAAAQIUEAABUSAAAQIWKBUDOpSYDAHYAAKBCAgAAKiQAAKBCAgAAKiQAAKBCAgAAKiQAAKBCAgAAKiQAAKBCAgAAKlQuAFIqNhoAamcHAAAqJAAAoEICAAAqJAAAoEICAAAqJAAAoEICAAAqJAAAoEICAAAqVCwAkisBAkAxdgAAoEICAAAqJAAAoEICAAAqJAAAoEICAAAqJAAAoEICAAAqJAAAoEICAAAqVCwAci41GQCwAwAAFRIAAFAhAQAAFRIAAFAhAQAAFRIAAFAhAQAAFRIAAFAhAQAAFRIAAFChYgGQUio1GgCqZwcAACokAACgQgIAACokAACgQgIAACokAACgQgIAACokAACgQgIAACokAACgQuUCwKWAAaAYOwAAUCEBAAAVEgAAUCEBAAAVEgAAUCEBAAAVEgAAUCEBAAAVEgAAUKFyAZCLTQaA6tkBAIAKCQAAqJAAAIAKCQAAqJAAAIAKCQAAqJAAAIAKCQAAqJAAAIAKCQAAqFC5AEip2GgAqJ0dAACokAAAgAoJAACokAAAgAoJAACokAAAgAoJAACokAAAgAoJAACokAAAgAoJAACokAAAgAoJAACokAAAgAoJAADqlksvoAwBAAAVEgAAUCEBAAAVEgAAUCEBAAAVEgAAUKGCAZDKjQaAytkBAIAKCQAAqJAAAIAKCQAAqJAAAIAKCQAAqJAAAIAKCQAAqJAAAIAKlQuA5EqAAFCKHQAAqJAAAIAKCQAAqJAAAIAKCQAAqJAAAIAKCQAAqJAAAIAKCQAAqJAAAIAKFQuAlEtNBgDsAABAhQQAAFRIAABAhQQAAFRIAABAhQQAAFRIAABAhQQAAFRIAABAhQQAAFSoWADklEqNBoDq2QEAgAoJAACokAAAgAoJAACokAAAgAoJAACokAAAgAoJAACokAAAgAoJAACoULkAcClgACjGDgAAVEgAAECFBAAAVEgAAECFBAAAVEgAAECFBAAAVEgAAECFBAAAVKhYAKRcajIAYAcAACokAACgQgIAACokAACgQgIAACokAACgQgIAACokAACgQgIAACokAACgQsUCIKdUajQAVM8OAABUSAAAQIUEAABUSAAAQIUEAABUSAAAQIUEAABUSAAAQIUEAABUSAAAQIWKBUByKWAAKMYOAABUSAAAQIUEAABUSAAAQIUEAABUSAAAQIUEAABUSAAAQIUEAABUSAAAQIXKBUAuNhkAqmcHAAAqJAAAoEICAAAqJAAAoEICAAAqJAAAoEICAAAqJAAAoEICAAAqVCwAckqlRgNA9ewAAECFBAAAVEgAAECFBAAAVEgAAECFBAAAVEgAAECFBAAAVEgAAECFBAAAVKhYACSXAgaAYuwAAECFBAAAVEgAAECFBAAAVEgAAECFBAAAVEgAAECFBAAAVEgAAECFeqUG58XZmPnmx0qNB4DI3dHoTo1HWpwd+Oy2bSPahYHPfVy5AGjmY/au/1lqPABERET3sV8lpGYhcqHZXgIAgAoJAACokAAAgAoJAACokAAAgAoJAACokAAAgAoJAACokAAAgAoJAACokAAAgAoJAACokAAAgAoJAACokAAAgAoJAACokAAAgAoJAACokAAAgAoJAACokAAAgAoJAACokAAAgAoJAACokAAAgAoJAACokAAAgAoJAACokAAAgEI6nXJPw70fu+ilt4+NjT4rpRgptgoAqNBDDz4UTdMMfG7btAfTl//vF/LAJwMAcf8DD0bTtEVmewkAACokAACgQgIAACokAACgQgIAACokAACgQgIAACokAACgQgIAACokAACgQgIAACokAACgQgIAACokAACgQgIAACokAACgQgIAACokAACgQgIAACokAACgQgIAACokAACgQgIAACokAACgQgIAACokAACgQgIAACokAACgQgIAACrUK70AYDC63V5s3HharN9waoytXx+dzqP937ZtzM3OxszMdExPTUTTNIVXCgyCAIAhd+rG0+LMM8+NTZu3RkrpqB+bc46JA+PxvQfvi+npyQGtEChBAMCQWr9+Q5xz7vmxecu2JX9OSik2b9kWm7dsiwP798V9994Tc3MzK7hKoBQBAENo67btcf4Fz/3+Nv+J2LxlW2zavCXuufuu2Lf3oWVcHbAaCAAYMueed0Gceda5y/JYKXXigmc+N9av3xD33Xv3sjwmsDo4BQBD5Oxznr5sT/6HOvOsc+Oss5++7I8LlCMAYEhs2XJ6nH3OM1bs8c859xmxdev2FXt8YLAEAAyB3shInP/M5674nGdc8Ozo9UZWfA6w8gQADIGzz356dLvdFZ/T7fbi7HO8FADDQADAGjc6OhbbzzhrYPO2n3FWjI6ODWwesDIEAKxx288485gX+FlOKaU4ffvTBjYPWBkCANa4zVtOH/jMLVsHPxNYXgIA1rB169bF2Nj6gc8dG9sQIyPrBj4XWD4CANawsfWnFJu9fv2GYrOBkycAYA1bt2603GxvBIQ1TQDAGjaIo3+rcTZw8gQArGE552Kz27YtNhs4eQIA1rB+f7HY7KbfLzYbOHkCANawubnZgrNnis0GTp4AgDVsduZgtG0z8LlN08TsrACAtUwAwBqWc47JyYmBz52aPFD0/QfAyRMAsMbt2/tQgZkPD3wmsLwEAKxxB/bvi9nZgwObNztzMPbv3zuwecDKEACwxuWc47577xnYvPvuvXtgs4CVIwBgCEwcGI8DB8ZXfM6B/ftiYmL/is8BVp4AgCFx9z/cvqIvBczNzcTd3/n2ij0+MFgCAIZE0zRx153fisXFhWV/7MXFhbjzjm9E07j4DwwLAQBDZH5uNr71ja/EwYPTy/aYMzMH41vf/GrMz88t22MC5QkAGDILCwtxx7e+Fnsf+d5JP9Yjj3wvbv/mV2Nhfn4ZVgasJr3SCwCWX9u2cc/dd8ZD37s/zj7nGbFl6+nH9fmTkwfivu9+J2ZmBne8EBgsAQBDbHZ2Jv7hrm/F+vUbYuu27bHxtM2xYcOp0ek8cfOvbduYmZmOyYkDsX/8EZf5hQr0IqIfQgCG2uzsTNx/3z9GxD9GRMS6daPR7XYj4tE3Dy4s2OKHEgpeULvfi4jpiNhcbg3AoHnCh9Uht8USYLITjwYAADBAOUfJm2pNdSKyi3oDwIC1efC38j7Evk5EurPkCgCgRouLBS+slfK3OznH7eVWAAB16pcMgDbd0YlO/vtyKwCAOpXcAUiRvtEZXeztiaInEQCgPnPlLq+du+vaL3R+8KKLHo6Ib5ZaBQDUpmmbkjsAf3fJJVc91ImIyDn9ealVAEBt5mYLXovjsef8R68H2uncUm4lAFCXgwfLXW47p/ajEY8FwIUXXvTViPh6sdUAQCWatom5QnfYzJG+evnlV3094pDbAacUv1tkNQBQkenpcnfZ7ET+4D/9/jGbtkz/t0jxQJklAcDwa3OOqXIB8ODE1Nx/f/w/vh8Az3nOxfMp8m8UWRIAVGB6ajrapi0zPOUb3/zmN3//7OETbgq+acvB346IOwa+KAAYcm3bxORUsfvv3TU5Of+El/qfEADPec7F8ynndw12TQAw/Pbvn4y2LfPTfyendx3603/EkwIgIuJHXvqK2yLiYwNbFQAMubm5+Tg4U+joX8ofvXTHlX/25D9+SgBERGyYaX4+vBQAACetbZvYN76/1Pi7Zmfbtx3uLw4bAC981aumUxtXRUSxCxUDwDDYu3d/NE1TYvRsp213XH311ZOH+8vDBkBExI+87OV/G23+6YgoeL9CAFi7xvcfKHXRnybldPWlV/zMV4/0AUcMgIiIF7/sFX+SUxx26wAAOLKJicliF/3Jkd592Y4rdx/tY44aABERF1748g/lnP5d2AkAgCWZnJyKicmpEqObFPHWyy+/8reP9YFpqY/45b/6wiWR4o8iYuyklgYAQ2x8/4FSP/nP58hvvPzyq3Yt5YOXHAAREX/zV198UZvy/4iIZ53Q0gBgSDVNG+Pj4zE7V+Q1/+9GSj/9utdd+VdL/YTjCoCIiK985XOb+/O934uULzvezwWAYTQ3Nx/7xsejKXKZ33Rrpzv7c5de+uYDx/VZJzrur//6i6/t5Hxzjjj/RB8DANaytm3jwIHJmD5YZMv//pTTL1+248qPnMgnn3AARER87Wt/ccr87PrrU4prImLryTwWAKwVOeeYmp6OycnpEpf3HY8cv7lu7NT3v/a1rz3hywueVAA87ktf+tLG0ZH2rSnirXYEABhWTdvE9PRMTE0VeeK/J1L+nV7vlN+55JJLTvqIwbIEwONyzunLX/7iyyPH1SnFxZHj7OV8fAAYtKZtYm52PmZmZgb/Br8cD+QU/yulzi2XXXbFF1NKebkeelkD4Mn+5i8//4LcTa/MOX4gIj0vRfvcHOmMiBhZybkAcCKapo1+vx/9xcVYWFyM+fmFWFhcHMToxYh4OHLckVN8OyJ9PaL93OWXX3X7Sg1c0QA4kjvv/PTo+Pi6Uzud0U0l5sPJePDBh7fdf/8DfxmRu6XXQkREas455+yXnXXWGftKr4S1ad++AxtnZg4u5NwM/PxeSv2JsbHt0xdffPHgZw96IKx1N930vjdE5BN61y0rI6V4w7vffcMtpdcBa8kxLwUMPFn7k6VXwFP4msBxEgBwHHbt2tWNSK8uvQ6eKOd4zaNfG2CpBAAch/vv/8cLI2Jb6XXwFFvvvffeF5deBKwlAgCOj63mVSqlxtcGjoMAgOPjSWaVSin52sBxcAoAlujmm39te9OMfC+E82rV9vtx1g033PBw6YXAWuAbGSxR06x7Tfg3s5p1RkbCGzRhiXwzgyVz/G8N8DWCJRIAsASO/60NjgPC0gkAWALH/9YMxwFhiQQALI2t5TXCcUBYGgEAS+NJZY1wHBCWxjFAOAbH/9YcxwFhCXxDg2Nw/G/NcRwQlsA3NTgmx//WIF8zOAYBAEfh+N/a5DggHJsAgKN47EiZ439rj+OAcAwCAI7CkbK1y9cOjk4AwFGklC4uvQZOjOOAcHSOAcIROP635jkOCEfhGxscgeN/a57jgHAUvrnBETn+NwR8DeEIBAAchuN/w8FxQDgyAQCH4fjf0HAcEI5AAMBhOEI2PHwt4fAEAByGI2TDw9cSDs8xQHgSx/+GjuOAcBi+wcGTOP43dBwHhMPwTQ6eJKW4rPQaWHZeBoAn8RIAHGLXrl3dbqd5KJwAWHY557j/gQejbdsS48fPOecZZ1xxxRVNieGwGtkBgEN0u63jfyskpRRjo6OlxjsOCE8iAOAQKbv630oaWz9WbLbjgPBEAgAOkcPd/1bS+rGSAeA4IBxKAMBjdu3atT0ifrj0OoZZt9uNkZGRUuNf9N73vveMUsNhtREA8Jhut3H8bwAK7gI4DgiH8M0OHpOyo2KDMFbwZYBwHBC+TwBAPHr8L4efDgdhbGw0Op0y33rcHRD+iQCAiOhF/8Jw/G9gRkfXlRrtOCA8RgBAROSud4gP0vqx9cVmOw4IjxIAEBHh9f+BWl/0egBiDyIEAMSuXbvODMf/Bqr0ccAbb7zxzFLDYbUQAFSv02kvD/8WBm7DhmIvA3RGRuJ1pYbDauGbHtVLKf906TXUaMP6DQWnpx0Fh8OqIACo2q23fvQZkeNHS6+jRiMjvVi3rthpgB97//vff16p4bAaCADq1nbfGf4dFLPx1FNLje50Ou3bSw2H1SCVXgCU8qlPfWpjf3Hm3ojYVHotNbv/gQejaZoSow+sW7fhvLe//e3TJYZDaX7yoVr9/sGfD0/+xW3cWGwXYPPCwszPlRoOpdkBoEp/+tGPbpkf7dwZrv5XXM45HnjwoWiafonx4zl3n3PdddeNlxgOJdkBoEoLo+lXwpP/qpBSis2bTis1fmtKzS+WGg4l2QGgOrt3/9ELcpu/EhGjpdfCP3no4Ydjfn5h4HNTirmm6fzg9ddf/+2BD4eC7ABQlZ07d3Zymz8UnvxXnW1bt0RKg/+ZJOcY63ab33eXQGojAKjKD7zweTdExEWl18FT9XojsanQSwE5p5fed993311kOBTiJQCq8YlPfOwlKeLz4af/Ve2RR/bG7NxcidHzKaUfe/e7f+HLJYbDoNkBoAq7d3/kjBTxifDkv+ptO31r9HpFduNHc8633nzzr20vMRwGTQAw9Hbt2rUu55FdEXFu6bVwbJ3UidO3nV7k/QARcV6/3/vYBz/4wWK3KoRB8aYXhtrOnTs7Zz5t6y0R8a9Lr4Wl63a7MTY6GjMzswOfnVJ65uLi3LNf9rKL/njPnj154AuAAbEDwFD7gX/23N+ICHf7W4NGR0dj29athaan12/efMpvFRoOAyEAGEo557T7E3/4mznSNaXXwonbsGF9bNtW7Hjg22666b3vzzl7szRDyf/YDJ1du3Z1u53mgxHxs6XXwvKYnZ2Lvfv2Rc5FduQ/MjFx8Gd37txZ5FrFsFIEAENl165dp3Y77R9E5J8qvRaW1/z8fDyyd1+0bTvw2TnHraeccvCNb3nLzpmBD4cVIgAYGp/85MfOa5r0x5Hzi0qvhZXR7/fjkb37YnFxscT4r/d68VPvfOcNd5cYDstNADAUdu/+w9fknP4gcpxeei2srLZtY3z//iInBCLikZzz1ddd94u3lRgOy0kAsKZ9+MMfHjvttLGdkeOG8KbWqszMzsT4vgPR5oG/JJAj8of6/XTdDTfccHDQw2G5CADWrN27/vAVuZN+NyKeX3otlNHvNzG+f3/MFbh0cM7xzW43veWaa37hSwMfDstAALDm3HrrH5wVufdfIuLq8P8w8egpgfH9B6JpBv9G/ZzTn+ac3nb99dffO/DhcBJ882TN2L3797flvO66yPmdEWlj6fWwuuScY3r6YExOTUXTNIMeP5Vz/kBE76brrrtufNDD4UQIAFa9T33qY2f3F+IdkfI7PPFzLI+HwNT0dPT7A98RmMw535zSyH+99tprHxz0cDgeAoBVaefOnZ0XvvB5r+qk9NaIfElE9EqvibVndnYupg9Ox+zswN8jsBiRPhmRf3di4uCenTt3Dv7iBXAMAoBV49Of/vTo3NyBl7dtuixF/FREnFl6TQyHpm1jbnY2ZmZnY25uIfJgTw48GBGfjIjd3e7oF9/1rnfND3I4HIkAoIhbbrnltPXre8/OuX12SumHI8e/iIgfiYjR0mtj+C0sLMT8/HzMLyxEv99Ef7E/kOOEKcVczvH/Ukpfatv8lZTyXQsL+c73vOc9Uys+HJ5EABRw0003XpRSXNq2neellJ8WFZxf73S627rdztNyzt1OSt1wK2pWme/fZSDnyPHoBYcGeNnhJufcRKTxlOJ7ETHwdzEW0OacHup02jtS6u6+5prr/0/pBdVGAAzQzTff+Ky27Xwo5/yq0msBWGU+G9H799dee+13Si+kFgJgQD7wgfe9qG3zX0TEttJrAVil9kbkf3Xttb/4t6UXUgMBMADve9/7Tu9281cj4pzSawFY5e4bGVn8oXe845f3lV7IsBv6155Xg04n/2p48gdYinMXF3u/WnoRNbADsMJuvvnm0aaZfyQiXMAGYGmmJyYObt+5c+fgb/JQETsAK6xp5l8WnvwBjsepmzefemHpRQw7AbDi0nmlVwCw9uSnl17BsBMAK+zRs70AHI+2jcHf2rEyAmCFdbude0qvAWCtydn3zpUmAFbY/v1Tfx0RjrMALN3e884778ulFzHsBMAK27lzZz8ifqv0OgDWkJuvuOIKL5+uMAEwAP1+vC/n+GbpdQCsAX/f78dvlF5EDVwHYEBuuummZ0b0b4uIZ5VeC8AqdVevF69+5ztvuLv0QmpgB2BArr322u+MjCy+JKX4cNRxpy+ApWpyjt/LufsST/6DYweggA984NefnnP33+Scnh8RZ5ReD0AhD6eUb0+p+ZNrrvml75ZeDAAAAAAAAAAAAAAAAAAAAAAAAAAAAMAy+v+gWFNBngjy6AAAAABJRU5ErkJggg==;fontColor=#CC6600;imageBackground=none;sketch=1;rounded=0;" parent="1" vertex="1">
          <mxGeometry x="120" y="86" width="72" height="72" as="geometry" />
        </mxCell>
        <mxCell id="462g3XgbdRgyeNSREBQg-3" value="" style="shape=image;verticalLabelPosition=bottom;labelBackgroundColor=default;verticalAlign=top;aspect=fixed;imageAspect=0;image=data:image/png,iVBORw0KGgoAAAANSUhEUgAAAgAAAAIACAYAAAD0eNT6AAAABHNCSVQICAgIfAhkiAAAAAlwSFlzAAAOxAAADsQBlSsOGwAAABl0RVh0U29mdHdhcmUAd3d3Lmlua3NjYXBlLm9yZ5vuPBoAAB0kSURBVHic7d17kJ1nfdjx33POWe1KtqybZXwFmztDm2RCMBA3XJIpJe5Qx8ZyjGMoNGkYrsZ2HDJp0uqPTiY1EAcn04RhUhpiQiqwAmlKEs8A4tImDU24JICNHezgG7allfaivZ73ffqHbSLbuqyk3fPsnufzmdGMLO2e3zOz1p7vPuc87xsBAAAAAAAAAAAAAAAAAAAAAAAAAAAArKC00gN27NixrtPpPCu63Re0OT+3E7E1ct6UU9oYEb2Vng8AR7PY778wN81Ym3O/zXkh9/tTi/3+1OLi4lTk3K7w+H6b0lQnYiLnPJ4j7sidzu1P27LlHz7+8Y8vrOTgFQmAHVdd9UMp55+MiB+PlH40ct6wEnMAYCUtLizEwmO/FhcXBzY3R8ykiP8dEZ9NOf/Z5z73ua8t94xlC4DXv/71pzcR/zYe/fXPl+txAWA1aJom5mZnY3Z2Ntp2pTcGnihHfL2T0u/npvnInj179i7HY550AFz6hjecMdI0b4ucr42I05ZhTQCwqs3NzcXB6elommbQow/mlH6vm/ONn/3sZ+8/mQc64QB405veNDazsPBLkfN7ImLsZBYBAGtNzjnmZmdj+uDByAPeEYiI2ZTSr+emuXHPnj1zJ/IAJxQAV1555U+0KX0wIp51Ip8PAMOibduYmpyM+fn5EuPvzCm95fOf+cznjvcTjysAduzY0U0jI78aOf9KRHSPdxgADKu5ubmYmpyMnPOgR+eIuHH7tm3/4eMf//iSX5NYcgBcddVVWxZz3p0iXnkiqwOAYbe4uBgTExPRDv69AZEjPpva9nV79uw5sJSPX1IA7Nix48zU6/15RPzgSa0OAIZc0zRxYP/+Em8QjIj4RrTta/bs2XPfsT7wmAGwY8eOp6de7/MRcf5yrAwAhl1u2xjfvz+afr/A8Hx3OzLyii/cdtu9R/uwztH+8tI3vnHbYz/5n7+cawOAYZY6ndiyZUt0ugXeLpfSBZ1+/zOvfvWrzzjahx0xAN70pjeNjSwufjoiXrDsiwOAIdfpdGLzli2ROkf9WXulPGehaT71yle+8ojH9I+4qtm5uQ9ExIUrsiwAqECv243TTit0jbycX5q73fcf6a8Puzdxxetff0Wk9OsrtyoAqEOv14uc80DvJfC4FPHiC84//8577rnn7w7zd0906RvecMZIv397RGwZyOoAoAL79u4tdTJg/7pe7/m33Xbbw4f+4VNeAhjp998bnvwBYFltLPVSQMSWxX7/Kbv6T9gBuOJnfuaiaNsvPvnPAYCTNzExEfNzJ3Tp/pOVc0oXff4zn/nLx//giTsAbfufwpM/AKyIU045pdTolNr2Px76B98PgB1XXXVhRPzLgS8JACrR6/Vi3ehomeEpveYVP/ETL378PzuH/Oa6MisCgHps2LCh2OxOztc+/vsUEbFjx45Nqdd7MCLWF1sVAFSi4ImAuWjbs/bs2XOgExHR6fWuDE/+ADAQo2NHvEDfShuLbvd1EY+9BJAjLi21EgCozVi5AIic82UREWnHjh3rUq83HhHF3poIADXJEbHvkUeibdsS46enJia2drrd7kvCkz8ADEyKiJF160qNP3XTpk0v7jQpvfjYHwsALKeRXq/Y7Dbiwk4n5+cVWwEAVKpbMAAi4nmdnNLzS64AAGpUPAAi4pySKwCAGnU7T7kf3yCd14mIYrcnAoBapVT01jsbOxFxaskVAECtUqFdgByxsRelrgCYUmx6+X8uMhoAIiJydyzGH/pOLC4O/ha9bdtGjP9WRHtw4LNTxIZy70DIEb1NFxQbDwAREe3UbLQLgw+AiIjodMvMjUPuBggA1EMAAECFBAAAVEgAAECFBAAAVEgAAECFBAAAVEgAAECFBAAAVKhcAJS9CQIAVM0OAABUSAAAQIUEAABUSAAAQIUEAABUSAAAQIUEAABUSAAAQIUEAABUSAAAQIWKBUByKWAAKMYOAABUSAAAQIUEAABUSAAAQIUEAABUSAAAQIUEAABUSAAAQIUEAABUSAAAQIWKBUDOpSYDAHYAAKBCAgAAKiQAAKBCAgAAKiQAAKBCAgAAKiQAAKBCAgAAKiQAAKBCAgAAKlQuAFIqNhoAamcHAAAqJAAAoEICAAAqJAAAoEICAAAqJAAAoEICAAAqJAAAoEICAAAqVCwAkisBAkAxdgAAoEICAAAqJAAAoEICAAAqJAAAoEICAAAqJAAAoEICAAAqJAAAoEICAAAqVCwAci41GQCwAwAAFRIAAFAhAQAAFRIAAFAhAQAAFRIAAFAhAQAAFRIAAFAhAQAAFRIAAFChYgGQUio1GgCqZwcAACokAACgQgIAACokAACgQgIAACokAACgQgIAACokAACgQgIAACokAACgQuUCwKWAAaAYOwAAUCEBAAAVEgAAUCEBAAAVEgAAUCEBAAAVEgAAUCEBAAAVEgAAUKFyAZCLTQaA6tkBAIAKCQAAqJAAAIAKCQAAqJAAAIAKCQAAqJAAAIAKCQAAqJAAAIAKCQAAqFC5AEip2GgAqJ0dAACokAAAgAoJAACokAAAgAoJAACokAAAgAoJAACokAAAgAoJAACokAAAgAoJAACokAAAgAoJAACokAAAgAoJAADqlksvoAwBAAAVEgAAUCEBAAAVEgAAUCEBAAAVEgAAUKGCAZDKjQaAytkBAIAKCQAAqJAAAIAKCQAAqJAAAIAKCQAAqJAAAIAKCQAAqJAAAIAKlQuA5EqAAFCKHQAAqJAAAIAKCQAAqJAAAIAKCQAAqJAAAIAKCQAAqJAAAIAKCQAAqJAAAIAKFQuAlEtNBgDsAABAhQQAAFRIAABAhQQAAFRIAABAhQQAAFRIAABAhQQAAFRIAABAhQQAAFSoWADklEqNBoDq2QEAgAoJAACokAAAgAoJAACokAAAgAoJAACokAAAgAoJAACokAAAgAoJAACoULkAcClgACjGDgAAVEgAAECFBAAAVEgAAECFBAAAVEgAAECFBAAAVEgAAECFBAAAVKhYAKRcajIAYAcAACokAACgQgIAACokAACgQgIAACokAACgQgIAACokAACgQgIAACokAACgQsUCIKdUajQAVM8OAABUSAAAQIUEAABUSAAAQIUEAABUSAAAQIUEAABUSAAAQIUEAABUSAAAQIWKBUByKWAAKMYOAABUSAAAQIUEAABUSAAAQIUEAABUSAAAQIUEAABUSAAAQIUEAABUSAAAQIXKBUAuNhkAqmcHAAAqJAAAoEICAAAqJAAAoEICAAAqJAAAoEICAAAqJAAAoEICAAAqVCwAckqlRgNA9ewAAECFBAAAVEgAAECFBAAAVEgAAECFBAAAVEgAAECFBAAAVEgAAECFBAAAVKhYACSXAgaAYuwAAECFBAAAVEgAAECFBAAAVEgAAECFBAAAVEgAAECFBAAAVEgAAECFeqUG58XZmPnmx0qNB4DI3dHoTo1HWpwd+Oy2bSPahYHPfVy5AGjmY/au/1lqPABERET3sV8lpGYhcqHZXgIAgAoJAACokAAAgAoJAACokAAAgAoJAACokAAAgAoJAACokAAAgAoJAACokAAAgAoJAACokAAAgAoJAACokAAAgAoJAACokAAAgAoJAACokAAAgAoJAACokAAAgAoJAACokAAAgAoJAACokAAAgAoJAACokAAAgAoJAACokAAAgEI6nXJPw70fu+ilt4+NjT4rpRgptgoAqNBDDz4UTdMMfG7btAfTl//vF/LAJwMAcf8DD0bTtEVmewkAACokAACgQgIAACokAACgQgIAACokAACgQgIAACokAACgQgIAACokAACgQgIAACokAACgQgIAACokAACgQgIAACokAACgQgIAACokAACgQgIAACokAACgQgIAACokAACgQgIAACokAACgQgIAACokAACgQgIAACokAACgQgIAACrUK70AYDC63V5s3HharN9waoytXx+dzqP937ZtzM3OxszMdExPTUTTNIVXCgyCAIAhd+rG0+LMM8+NTZu3RkrpqB+bc46JA+PxvQfvi+npyQGtEChBAMCQWr9+Q5xz7vmxecu2JX9OSik2b9kWm7dsiwP798V9994Tc3MzK7hKoBQBAENo67btcf4Fz/3+Nv+J2LxlW2zavCXuufuu2Lf3oWVcHbAaCAAYMueed0Gceda5y/JYKXXigmc+N9av3xD33Xv3sjwmsDo4BQBD5Oxznr5sT/6HOvOsc+Oss5++7I8LlCMAYEhs2XJ6nH3OM1bs8c859xmxdev2FXt8YLAEAAyB3shInP/M5674nGdc8Ozo9UZWfA6w8gQADIGzz356dLvdFZ/T7fbi7HO8FADDQADAGjc6OhbbzzhrYPO2n3FWjI6ODWwesDIEAKxx288485gX+FlOKaU4ffvTBjYPWBkCANa4zVtOH/jMLVsHPxNYXgIA1rB169bF2Nj6gc8dG9sQIyPrBj4XWD4CANawsfWnFJu9fv2GYrOBkycAYA1bt2603GxvBIQ1TQDAGjaIo3+rcTZw8gQArGE552Kz27YtNhs4eQIA1rB+f7HY7KbfLzYbOHkCANawubnZgrNnis0GTp4AgDVsduZgtG0z8LlN08TsrACAtUwAwBqWc47JyYmBz52aPFD0/QfAyRMAsMbt2/tQgZkPD3wmsLwEAKxxB/bvi9nZgwObNztzMPbv3zuwecDKEACwxuWc47577xnYvPvuvXtgs4CVIwBgCEwcGI8DB8ZXfM6B/ftiYmL/is8BVp4AgCFx9z/cvqIvBczNzcTd3/n2ij0+MFgCAIZE0zRx153fisXFhWV/7MXFhbjzjm9E07j4DwwLAQBDZH5uNr71ja/EwYPTy/aYMzMH41vf/GrMz88t22MC5QkAGDILCwtxx7e+Fnsf+d5JP9Yjj3wvbv/mV2Nhfn4ZVgasJr3SCwCWX9u2cc/dd8ZD37s/zj7nGbFl6+nH9fmTkwfivu9+J2ZmBne8EBgsAQBDbHZ2Jv7hrm/F+vUbYuu27bHxtM2xYcOp0ek8cfOvbduYmZmOyYkDsX/8EZf5hQr0IqIfQgCG2uzsTNx/3z9GxD9GRMS6daPR7XYj4tE3Dy4s2OKHEgpeULvfi4jpiNhcbg3AoHnCh9Uht8USYLITjwYAADBAOUfJm2pNdSKyi3oDwIC1efC38j7Evk5EurPkCgCgRouLBS+slfK3OznH7eVWAAB16pcMgDbd0YlO/vtyKwCAOpXcAUiRvtEZXeztiaInEQCgPnPlLq+du+vaL3R+8KKLHo6Ib5ZaBQDUpmmbkjsAf3fJJVc91ImIyDn9ealVAEBt5mYLXovjsef8R68H2uncUm4lAFCXgwfLXW47p/ajEY8FwIUXXvTViPh6sdUAQCWatom5QnfYzJG+evnlV3094pDbAacUv1tkNQBQkenpcnfZ7ET+4D/9/jGbtkz/t0jxQJklAcDwa3OOqXIB8ODE1Nx/f/w/vh8Az3nOxfMp8m8UWRIAVGB6ajrapi0zPOUb3/zmN3//7OETbgq+acvB346IOwa+KAAYcm3bxORUsfvv3TU5Of+El/qfEADPec7F8ynndw12TQAw/Pbvn4y2LfPTfyendx3603/EkwIgIuJHXvqK2yLiYwNbFQAMubm5+Tg4U+joX8ofvXTHlX/25D9+SgBERGyYaX4+vBQAACetbZvYN76/1Pi7Zmfbtx3uLw4bAC981aumUxtXRUSxCxUDwDDYu3d/NE1TYvRsp213XH311ZOH+8vDBkBExI+87OV/G23+6YgoeL9CAFi7xvcfKHXRnybldPWlV/zMV4/0AUcMgIiIF7/sFX+SUxx26wAAOLKJicliF/3Jkd592Y4rdx/tY44aABERF1748g/lnP5d2AkAgCWZnJyKicmpEqObFPHWyy+/8reP9YFpqY/45b/6wiWR4o8iYuyklgYAQ2x8/4FSP/nP58hvvPzyq3Yt5YOXHAAREX/zV198UZvy/4iIZ53Q0gBgSDVNG+Pj4zE7V+Q1/+9GSj/9utdd+VdL/YTjCoCIiK985XOb+/O934uULzvezwWAYTQ3Nx/7xsejKXKZ33Rrpzv7c5de+uYDx/VZJzrur//6i6/t5Hxzjjj/RB8DANaytm3jwIHJmD5YZMv//pTTL1+248qPnMgnn3AARER87Wt/ccr87PrrU4prImLryTwWAKwVOeeYmp6OycnpEpf3HY8cv7lu7NT3v/a1rz3hywueVAA87ktf+tLG0ZH2rSnirXYEABhWTdvE9PRMTE0VeeK/J1L+nV7vlN+55JJLTvqIwbIEwONyzunLX/7iyyPH1SnFxZHj7OV8fAAYtKZtYm52PmZmZgb/Br8cD+QU/yulzi2XXXbFF1NKebkeelkD4Mn+5i8//4LcTa/MOX4gIj0vRfvcHOmMiBhZybkAcCKapo1+vx/9xcVYWFyM+fmFWFhcHMToxYh4OHLckVN8OyJ9PaL93OWXX3X7Sg1c0QA4kjvv/PTo+Pi6Uzud0U0l5sPJePDBh7fdf/8DfxmRu6XXQkREas455+yXnXXWGftKr4S1ad++AxtnZg4u5NwM/PxeSv2JsbHt0xdffPHgZw96IKx1N930vjdE5BN61y0rI6V4w7vffcMtpdcBa8kxLwUMPFn7k6VXwFP4msBxEgBwHHbt2tWNSK8uvQ6eKOd4zaNfG2CpBAAch/vv/8cLI2Jb6XXwFFvvvffeF5deBKwlAgCOj63mVSqlxtcGjoMAgOPjSWaVSin52sBxcAoAlujmm39te9OMfC+E82rV9vtx1g033PBw6YXAWuAbGSxR06x7Tfg3s5p1RkbCGzRhiXwzgyVz/G8N8DWCJRIAsASO/60NjgPC0gkAWALH/9YMxwFhiQQALI2t5TXCcUBYGgEAS+NJZY1wHBCWxjFAOAbH/9YcxwFhCXxDg2Nw/G/NcRwQlsA3NTgmx//WIF8zOAYBAEfh+N/a5DggHJsAgKN47EiZ439rj+OAcAwCAI7CkbK1y9cOjk4AwFGklC4uvQZOjOOAcHSOAcIROP635jkOCEfhGxscgeN/a57jgHAUvrnBETn+NwR8DeEIBAAchuN/w8FxQDgyAQCH4fjf0HAcEI5AAMBhOEI2PHwt4fAEAByGI2TDw9cSDs8xQHgSx/+GjuOAcBi+wcGTOP43dBwHhMPwTQ6eJKW4rPQaWHZeBoAn8RIAHGLXrl3dbqd5KJwAWHY557j/gQejbdsS48fPOecZZ1xxxRVNieGwGtkBgEN0u63jfyskpRRjo6OlxjsOCE8iAOAQKbv630oaWz9WbLbjgPBEAgAOkcPd/1bS+rGSAeA4IBxKAMBjdu3atT0ifrj0OoZZt9uNkZGRUuNf9N73vveMUsNhtREA8Jhut3H8bwAK7gI4DgiH8M0OHpOyo2KDMFbwZYBwHBC+TwBAPHr8L4efDgdhbGw0Op0y33rcHRD+iQCAiOhF/8Jw/G9gRkfXlRrtOCA8RgBAROSud4gP0vqx9cVmOw4IjxIAEBHh9f+BWl/0egBiDyIEAMSuXbvODMf/Bqr0ccAbb7zxzFLDYbUQAFSv02kvD/8WBm7DhmIvA3RGRuJ1pYbDauGbHtVLKf906TXUaMP6DQWnpx0Fh8OqIACo2q23fvQZkeNHS6+jRiMjvVi3rthpgB97//vff16p4bAaCADq1nbfGf4dFLPx1FNLje50Ou3bSw2H1SCVXgCU8qlPfWpjf3Hm3ojYVHotNbv/gQejaZoSow+sW7fhvLe//e3TJYZDaX7yoVr9/sGfD0/+xW3cWGwXYPPCwszPlRoOpdkBoEp/+tGPbpkf7dwZrv5XXM45HnjwoWiafonx4zl3n3PdddeNlxgOJdkBoEoLo+lXwpP/qpBSis2bTis1fmtKzS+WGg4l2QGgOrt3/9ELcpu/EhGjpdfCP3no4Ydjfn5h4HNTirmm6fzg9ddf/+2BD4eC7ABQlZ07d3Zymz8UnvxXnW1bt0RKg/+ZJOcY63ab33eXQGojAKjKD7zweTdExEWl18FT9XojsanQSwE5p5fed993311kOBTiJQCq8YlPfOwlKeLz4af/Ve2RR/bG7NxcidHzKaUfe/e7f+HLJYbDoNkBoAq7d3/kjBTxifDkv+ptO31r9HpFduNHc8633nzzr20vMRwGTQAw9Hbt2rUu55FdEXFu6bVwbJ3UidO3nV7k/QARcV6/3/vYBz/4wWK3KoRB8aYXhtrOnTs7Zz5t6y0R8a9Lr4Wl63a7MTY6GjMzswOfnVJ65uLi3LNf9rKL/njPnj154AuAAbEDwFD7gX/23N+ICHf7W4NGR0dj29athaan12/efMpvFRoOAyEAGEo557T7E3/4mznSNaXXwonbsGF9bNtW7Hjg22666b3vzzl7szRDyf/YDJ1du3Z1u53mgxHxs6XXwvKYnZ2Lvfv2Rc5FduQ/MjFx8Gd37txZ5FrFsFIEAENl165dp3Y77R9E5J8qvRaW1/z8fDyyd1+0bTvw2TnHraeccvCNb3nLzpmBD4cVIgAYGp/85MfOa5r0x5Hzi0qvhZXR7/fjkb37YnFxscT4r/d68VPvfOcNd5cYDstNADAUdu/+w9fknP4gcpxeei2srLZtY3z//iInBCLikZzz1ddd94u3lRgOy0kAsKZ9+MMfHjvttLGdkeOG8KbWqszMzsT4vgPR5oG/JJAj8of6/XTdDTfccHDQw2G5CADWrN27/vAVuZN+NyKeX3otlNHvNzG+f3/MFbh0cM7xzW43veWaa37hSwMfDstAALDm3HrrH5wVufdfIuLq8P8w8egpgfH9B6JpBv9G/ZzTn+ac3nb99dffO/DhcBJ882TN2L3797flvO66yPmdEWlj6fWwuuScY3r6YExOTUXTNIMeP5Vz/kBE76brrrtufNDD4UQIAFa9T33qY2f3F+IdkfI7PPFzLI+HwNT0dPT7A98RmMw535zSyH+99tprHxz0cDgeAoBVaefOnZ0XvvB5r+qk9NaIfElE9EqvibVndnYupg9Ox+zswN8jsBiRPhmRf3di4uCenTt3Dv7iBXAMAoBV49Of/vTo3NyBl7dtuixF/FREnFl6TQyHpm1jbnY2ZmZnY25uIfJgTw48GBGfjIjd3e7oF9/1rnfND3I4HIkAoIhbbrnltPXre8/OuX12SumHI8e/iIgfiYjR0mtj+C0sLMT8/HzMLyxEv99Ef7E/kOOEKcVczvH/Ukpfatv8lZTyXQsL+c73vOc9Uys+HJ5EABRw0003XpRSXNq2neellJ8WFZxf73S627rdztNyzt1OSt1wK2pWme/fZSDnyPHoBYcGeNnhJufcRKTxlOJ7ETHwdzEW0OacHup02jtS6u6+5prr/0/pBdVGAAzQzTff+Ky27Xwo5/yq0msBWGU+G9H799dee+13Si+kFgJgQD7wgfe9qG3zX0TEttJrAVil9kbkf3Xttb/4t6UXUgMBMADve9/7Tu9281cj4pzSawFY5e4bGVn8oXe845f3lV7IsBv6155Xg04n/2p48gdYinMXF3u/WnoRNbADsMJuvvnm0aaZfyQiXMAGYGmmJyYObt+5c+fgb/JQETsAK6xp5l8WnvwBjsepmzefemHpRQw7AbDi0nmlVwCw9uSnl17BsBMAK+zRs70AHI+2jcHf2rEyAmCFdbude0qvAWCtydn3zpUmAFbY/v1Tfx0RjrMALN3e884778ulFzHsBMAK27lzZz8ifqv0OgDWkJuvuOIKL5+uMAEwAP1+vC/n+GbpdQCsAX/f78dvlF5EDVwHYEBuuummZ0b0b4uIZ5VeC8AqdVevF69+5ztvuLv0QmpgB2BArr322u+MjCy+JKX4cNRxpy+ApWpyjt/LufsST/6DYweggA984NefnnP33+Scnh8RZ5ReD0AhD6eUb0+p+ZNrrvml75ZeDAAAAAAAAAAAAAAAAAAAAAAAAAAAAMAy+v+gWFNBngjy6AAAAABJRU5ErkJggg==;sketch=1;rounded=0;" parent="1" vertex="1">
          <mxGeometry x="248" y="162" width="72" height="72" as="geometry" />
        </mxCell>
        <mxCell id="462g3XgbdRgyeNSREBQg-4" value="" style="shape=image;verticalLabelPosition=bottom;labelBackgroundColor=default;verticalAlign=top;aspect=fixed;imageAspect=0;image=data:image/png,iVBORw0KGgoAAAANSUhEUgAAAgAAAAIACAYAAAD0eNT6AAAABHNCSVQICAgIfAhkiAAAAAlwSFlzAAAOxAAADsQBlSsOGwAAABl0RVh0U29mdHdhcmUAd3d3Lmlua3NjYXBlLm9yZ5vuPBoAAB0kSURBVHic7d17kJ1nfdjx33POWe1KtqybZXwFmztDm2RCMBA3XJIpJe5Qx8ZyjGMoNGkYrsZ2HDJp0uqPTiY1EAcn04RhUhpiQiqwAmlKEs8A4tImDU24JICNHezgG7allfaivZ73ffqHbSLbuqyk3fPsnufzmdGMLO2e3zOz1p7vPuc87xsBAAAAAAAAAAAAAAAAAAAAAAAAAAAArKC00gN27NixrtPpPCu63Re0OT+3E7E1ct6UU9oYEb2Vng8AR7PY778wN81Ym3O/zXkh9/tTi/3+1OLi4lTk3K7w+H6b0lQnYiLnPJ4j7sidzu1P27LlHz7+8Y8vrOTgFQmAHVdd9UMp55+MiB+PlH40ct6wEnMAYCUtLizEwmO/FhcXBzY3R8ykiP8dEZ9NOf/Z5z73ua8t94xlC4DXv/71pzcR/zYe/fXPl+txAWA1aJom5mZnY3Z2Ntp2pTcGnihHfL2T0u/npvnInj179i7HY550AFz6hjecMdI0b4ucr42I05ZhTQCwqs3NzcXB6elommbQow/mlH6vm/ONn/3sZ+8/mQc64QB405veNDazsPBLkfN7ImLsZBYBAGtNzjnmZmdj+uDByAPeEYiI2ZTSr+emuXHPnj1zJ/IAJxQAV1555U+0KX0wIp51Ip8PAMOibduYmpyM+fn5EuPvzCm95fOf+cznjvcTjysAduzY0U0jI78aOf9KRHSPdxgADKu5ubmYmpyMnPOgR+eIuHH7tm3/4eMf//iSX5NYcgBcddVVWxZz3p0iXnkiqwOAYbe4uBgTExPRDv69AZEjPpva9nV79uw5sJSPX1IA7Nix48zU6/15RPzgSa0OAIZc0zRxYP/+Em8QjIj4RrTta/bs2XPfsT7wmAGwY8eOp6de7/MRcf5yrAwAhl1u2xjfvz+afr/A8Hx3OzLyii/cdtu9R/uwztH+8tI3vnHbYz/5n7+cawOAYZY6ndiyZUt0ugXeLpfSBZ1+/zOvfvWrzzjahx0xAN70pjeNjSwufjoiXrDsiwOAIdfpdGLzli2ROkf9WXulPGehaT71yle+8ojH9I+4qtm5uQ9ExIUrsiwAqECv243TTit0jbycX5q73fcf6a8Puzdxxetff0Wk9OsrtyoAqEOv14uc80DvJfC4FPHiC84//8577rnn7w7zd0906RvecMZIv397RGwZyOoAoAL79u4tdTJg/7pe7/m33Xbbw4f+4VNeAhjp998bnvwBYFltLPVSQMSWxX7/Kbv6T9gBuOJnfuaiaNsvPvnPAYCTNzExEfNzJ3Tp/pOVc0oXff4zn/nLx//giTsAbfufwpM/AKyIU045pdTolNr2Px76B98PgB1XXXVhRPzLgS8JACrR6/Vi3ehomeEpveYVP/ETL378PzuH/Oa6MisCgHps2LCh2OxOztc+/vsUEbFjx45Nqdd7MCLWF1sVAFSi4ImAuWjbs/bs2XOgExHR6fWuDE/+ADAQo2NHvEDfShuLbvd1EY+9BJAjLi21EgCozVi5AIic82UREWnHjh3rUq83HhHF3poIADXJEbHvkUeibdsS46enJia2drrd7kvCkz8ADEyKiJF160qNP3XTpk0v7jQpvfjYHwsALKeRXq/Y7Dbiwk4n5+cVWwEAVKpbMAAi4nmdnNLzS64AAGpUPAAi4pySKwCAGnU7T7kf3yCd14mIYrcnAoBapVT01jsbOxFxaskVAECtUqFdgByxsRelrgCYUmx6+X8uMhoAIiJydyzGH/pOLC4O/ha9bdtGjP9WRHtw4LNTxIZy70DIEb1NFxQbDwAREe3UbLQLgw+AiIjodMvMjUPuBggA1EMAAECFBAAAVEgAAECFBAAAVEgAAECFBAAAVEgAAECFBAAAVKhcAJS9CQIAVM0OAABUSAAAQIUEAABUSAAAQIUEAABUSAAAQIUEAABUSAAAQIUEAABUSAAAQIWKBUByKWAAKMYOAABUSAAAQIUEAABUSAAAQIUEAABUSAAAQIUEAABUSAAAQIUEAABUSAAAQIWKBUDOpSYDAHYAAKBCAgAAKiQAAKBCAgAAKiQAAKBCAgAAKiQAAKBCAgAAKiQAAKBCAgAAKlQuAFIqNhoAamcHAAAqJAAAoEICAAAqJAAAoEICAAAqJAAAoEICAAAqJAAAoEICAAAqVCwAkisBAkAxdgAAoEICAAAqJAAAoEICAAAqJAAAoEICAAAqJAAAoEICAAAqJAAAoEICAAAqVCwAci41GQCwAwAAFRIAAFAhAQAAFRIAAFAhAQAAFRIAAFAhAQAAFRIAAFAhAQAAFRIAAFChYgGQUio1GgCqZwcAACokAACgQgIAACokAACgQgIAACokAACgQgIAACokAACgQgIAACokAACgQuUCwKWAAaAYOwAAUCEBAAAVEgAAUCEBAAAVEgAAUCEBAAAVEgAAUCEBAAAVEgAAUKFyAZCLTQaA6tkBAIAKCQAAqJAAAIAKCQAAqJAAAIAKCQAAqJAAAIAKCQAAqJAAAIAKCQAAqFC5AEip2GgAqJ0dAACokAAAgAoJAACokAAAgAoJAACokAAAgAoJAACokAAAgAoJAACokAAAgAoJAACokAAAgAoJAACokAAAgAoJAADqlksvoAwBAAAVEgAAUCEBAAAVEgAAUCEBAAAVEgAAUKGCAZDKjQaAytkBAIAKCQAAqJAAAIAKCQAAqJAAAIAKCQAAqJAAAIAKCQAAqJAAAIAKlQuA5EqAAFCKHQAAqJAAAIAKCQAAqJAAAIAKCQAAqJAAAIAKCQAAqJAAAIAKCQAAqJAAAIAKFQuAlEtNBgDsAABAhQQAAFRIAABAhQQAAFRIAABAhQQAAFRIAABAhQQAAFRIAABAhQQAAFSoWADklEqNBoDq2QEAgAoJAACokAAAgAoJAACokAAAgAoJAACokAAAgAoJAACokAAAgAoJAACoULkAcClgACjGDgAAVEgAAECFBAAAVEgAAECFBAAAVEgAAECFBAAAVEgAAECFBAAAVKhYAKRcajIAYAcAACokAACgQgIAACokAACgQgIAACokAACgQgIAACokAACgQgIAACokAACgQsUCIKdUajQAVM8OAABUSAAAQIUEAABUSAAAQIUEAABUSAAAQIUEAABUSAAAQIUEAABUSAAAQIWKBUByKWAAKMYOAABUSAAAQIUEAABUSAAAQIUEAABUSAAAQIUEAABUSAAAQIUEAABUSAAAQIXKBUAuNhkAqmcHAAAqJAAAoEICAAAqJAAAoEICAAAqJAAAoEICAAAqJAAAoEICAAAqVCwAckqlRgNA9ewAAECFBAAAVEgAAECFBAAAVEgAAECFBAAAVEgAAECFBAAAVEgAAECFBAAAVKhYACSXAgaAYuwAAECFBAAAVEgAAECFBAAAVEgAAECFBAAAVEgAAECFBAAAVEgAAECFeqUG58XZmPnmx0qNB4DI3dHoTo1HWpwd+Oy2bSPahYHPfVy5AGjmY/au/1lqPABERET3sV8lpGYhcqHZXgIAgAoJAACokAAAgAoJAACokAAAgAoJAACokAAAgAoJAACokAAAgAoJAACokAAAgAoJAACokAAAgAoJAACokAAAgAoJAACokAAAgAoJAACokAAAgAoJAACokAAAgAoJAACokAAAgAoJAACokAAAgAoJAACokAAAgAoJAACokAAAgEI6nXJPw70fu+ilt4+NjT4rpRgptgoAqNBDDz4UTdMMfG7btAfTl//vF/LAJwMAcf8DD0bTtEVmewkAACokAACgQgIAACokAACgQgIAACokAACgQgIAACokAACgQgIAACokAACgQgIAACokAACgQgIAACokAACgQgIAACokAACgQgIAACokAACgQgIAACokAACgQgIAACokAACgQgIAACokAACgQgIAACokAACgQgIAACokAACgQgIAACrUK70AYDC63V5s3HharN9waoytXx+dzqP937ZtzM3OxszMdExPTUTTNIVXCgyCAIAhd+rG0+LMM8+NTZu3RkrpqB+bc46JA+PxvQfvi+npyQGtEChBAMCQWr9+Q5xz7vmxecu2JX9OSik2b9kWm7dsiwP798V9994Tc3MzK7hKoBQBAENo67btcf4Fz/3+Nv+J2LxlW2zavCXuufuu2Lf3oWVcHbAaCAAYMueed0Gceda5y/JYKXXigmc+N9av3xD33Xv3sjwmsDo4BQBD5Oxznr5sT/6HOvOsc+Oss5++7I8LlCMAYEhs2XJ6nH3OM1bs8c859xmxdev2FXt8YLAEAAyB3shInP/M5674nGdc8Ozo9UZWfA6w8gQADIGzz356dLvdFZ/T7fbi7HO8FADDQADAGjc6OhbbzzhrYPO2n3FWjI6ODWwesDIEAKxx288485gX+FlOKaU4ffvTBjYPWBkCANa4zVtOH/jMLVsHPxNYXgIA1rB169bF2Nj6gc8dG9sQIyPrBj4XWD4CANawsfWnFJu9fv2GYrOBkycAYA1bt2603GxvBIQ1TQDAGjaIo3+rcTZw8gQArGE552Kz27YtNhs4eQIA1rB+f7HY7KbfLzYbOHkCANawubnZgrNnis0GTp4AgDVsduZgtG0z8LlN08TsrACAtUwAwBqWc47JyYmBz52aPFD0/QfAyRMAsMbt2/tQgZkPD3wmsLwEAKxxB/bvi9nZgwObNztzMPbv3zuwecDKEACwxuWc47577xnYvPvuvXtgs4CVIwBgCEwcGI8DB8ZXfM6B/ftiYmL/is8BVp4AgCFx9z/cvqIvBczNzcTd3/n2ij0+MFgCAIZE0zRx153fisXFhWV/7MXFhbjzjm9E07j4DwwLAQBDZH5uNr71ja/EwYPTy/aYMzMH41vf/GrMz88t22MC5QkAGDILCwtxx7e+Fnsf+d5JP9Yjj3wvbv/mV2Nhfn4ZVgasJr3SCwCWX9u2cc/dd8ZD37s/zj7nGbFl6+nH9fmTkwfivu9+J2ZmBne8EBgsAQBDbHZ2Jv7hrm/F+vUbYuu27bHxtM2xYcOp0ek8cfOvbduYmZmOyYkDsX/8EZf5hQr0IqIfQgCG2uzsTNx/3z9GxD9GRMS6daPR7XYj4tE3Dy4s2OKHEgpeULvfi4jpiNhcbg3AoHnCh9Uht8USYLITjwYAADBAOUfJm2pNdSKyi3oDwIC1efC38j7Evk5EurPkCgCgRouLBS+slfK3OznH7eVWAAB16pcMgDbd0YlO/vtyKwCAOpXcAUiRvtEZXeztiaInEQCgPnPlLq+du+vaL3R+8KKLHo6Ib5ZaBQDUpmmbkjsAf3fJJVc91ImIyDn9ealVAEBt5mYLXovjsef8R68H2uncUm4lAFCXgwfLXW47p/ajEY8FwIUXXvTViPh6sdUAQCWatom5QnfYzJG+evnlV3094pDbAacUv1tkNQBQkenpcnfZ7ET+4D/9/jGbtkz/t0jxQJklAcDwa3OOqXIB8ODE1Nx/f/w/vh8Az3nOxfMp8m8UWRIAVGB6ajrapi0zPOUb3/zmN3//7OETbgq+acvB346IOwa+KAAYcm3bxORUsfvv3TU5Of+El/qfEADPec7F8ynndw12TQAw/Pbvn4y2LfPTfyendx3603/EkwIgIuJHXvqK2yLiYwNbFQAMubm5+Tg4U+joX8ofvXTHlX/25D9+SgBERGyYaX4+vBQAACetbZvYN76/1Pi7Zmfbtx3uLw4bAC981aumUxtXRUSxCxUDwDDYu3d/NE1TYvRsp213XH311ZOH+8vDBkBExI+87OV/G23+6YgoeL9CAFi7xvcfKHXRnybldPWlV/zMV4/0AUcMgIiIF7/sFX+SUxx26wAAOLKJicliF/3Jkd592Y4rdx/tY44aABERF1748g/lnP5d2AkAgCWZnJyKicmpEqObFPHWyy+/8reP9YFpqY/45b/6wiWR4o8iYuyklgYAQ2x8/4FSP/nP58hvvPzyq3Yt5YOXHAAREX/zV198UZvy/4iIZ53Q0gBgSDVNG+Pj4zE7V+Q1/+9GSj/9utdd+VdL/YTjCoCIiK985XOb+/O934uULzvezwWAYTQ3Nx/7xsejKXKZ33Rrpzv7c5de+uYDx/VZJzrur//6i6/t5Hxzjjj/RB8DANaytm3jwIHJmD5YZMv//pTTL1+248qPnMgnn3AARER87Wt/ccr87PrrU4prImLryTwWAKwVOeeYmp6OycnpEpf3HY8cv7lu7NT3v/a1rz3hywueVAA87ktf+tLG0ZH2rSnirXYEABhWTdvE9PRMTE0VeeK/J1L+nV7vlN+55JJLTvqIwbIEwONyzunLX/7iyyPH1SnFxZHj7OV8fAAYtKZtYm52PmZmZgb/Br8cD+QU/yulzi2XXXbFF1NKebkeelkD4Mn+5i8//4LcTa/MOX4gIj0vRfvcHOmMiBhZybkAcCKapo1+vx/9xcVYWFyM+fmFWFhcHMToxYh4OHLckVN8OyJ9PaL93OWXX3X7Sg1c0QA4kjvv/PTo+Pi6Uzud0U0l5sPJePDBh7fdf/8DfxmRu6XXQkREas455+yXnXXWGftKr4S1ad++AxtnZg4u5NwM/PxeSv2JsbHt0xdffPHgZw96IKx1N930vjdE5BN61y0rI6V4w7vffcMtpdcBa8kxLwUMPFn7k6VXwFP4msBxEgBwHHbt2tWNSK8uvQ6eKOd4zaNfG2CpBAAch/vv/8cLI2Jb6XXwFFvvvffeF5deBKwlAgCOj63mVSqlxtcGjoMAgOPjSWaVSin52sBxcAoAlujmm39te9OMfC+E82rV9vtx1g033PBw6YXAWuAbGSxR06x7Tfg3s5p1RkbCGzRhiXwzgyVz/G8N8DWCJRIAsASO/60NjgPC0gkAWALH/9YMxwFhiQQALI2t5TXCcUBYGgEAS+NJZY1wHBCWxjFAOAbH/9YcxwFhCXxDg2Nw/G/NcRwQlsA3NTgmx//WIF8zOAYBAEfh+N/a5DggHJsAgKN47EiZ439rj+OAcAwCAI7CkbK1y9cOjk4AwFGklC4uvQZOjOOAcHSOAcIROP635jkOCEfhGxscgeN/a57jgHAUvrnBETn+NwR8DeEIBAAchuN/w8FxQDgyAQCH4fjf0HAcEI5AAMBhOEI2PHwt4fAEAByGI2TDw9cSDs8xQHgSx/+GjuOAcBi+wcGTOP43dBwHhMPwTQ6eJKW4rPQaWHZeBoAn8RIAHGLXrl3dbqd5KJwAWHY557j/gQejbdsS48fPOecZZ1xxxRVNieGwGtkBgEN0u63jfyskpRRjo6OlxjsOCE8iAOAQKbv630oaWz9WbLbjgPBEAgAOkcPd/1bS+rGSAeA4IBxKAMBjdu3atT0ifrj0OoZZt9uNkZGRUuNf9N73vveMUsNhtREA8Jhut3H8bwAK7gI4DgiH8M0OHpOyo2KDMFbwZYBwHBC+TwBAPHr8L4efDgdhbGw0Op0y33rcHRD+iQCAiOhF/8Jw/G9gRkfXlRrtOCA8RgBAROSud4gP0vqx9cVmOw4IjxIAEBHh9f+BWl/0egBiDyIEAMSuXbvODMf/Bqr0ccAbb7zxzFLDYbUQAFSv02kvD/8WBm7DhmIvA3RGRuJ1pYbDauGbHtVLKf906TXUaMP6DQWnpx0Fh8OqIACo2q23fvQZkeNHS6+jRiMjvVi3rthpgB97//vff16p4bAaCADq1nbfGf4dFLPx1FNLje50Ou3bSw2H1SCVXgCU8qlPfWpjf3Hm3ojYVHotNbv/gQejaZoSow+sW7fhvLe//e3TJYZDaX7yoVr9/sGfD0/+xW3cWGwXYPPCwszPlRoOpdkBoEp/+tGPbpkf7dwZrv5XXM45HnjwoWiafonx4zl3n3PdddeNlxgOJdkBoEoLo+lXwpP/qpBSis2bTis1fmtKzS+WGg4l2QGgOrt3/9ELcpu/EhGjpdfCP3no4Ydjfn5h4HNTirmm6fzg9ddf/+2BD4eC7ABQlZ07d3Zymz8UnvxXnW1bt0RKg/+ZJOcY63ab33eXQGojAKjKD7zweTdExEWl18FT9XojsanQSwE5p5fed993311kOBTiJQCq8YlPfOwlKeLz4af/Ve2RR/bG7NxcidHzKaUfe/e7f+HLJYbDoNkBoAq7d3/kjBTxifDkv+ptO31r9HpFduNHc8633nzzr20vMRwGTQAw9Hbt2rUu55FdEXFu6bVwbJ3UidO3nV7k/QARcV6/3/vYBz/4wWK3KoRB8aYXhtrOnTs7Zz5t6y0R8a9Lr4Wl63a7MTY6GjMzswOfnVJ65uLi3LNf9rKL/njPnj154AuAAbEDwFD7gX/23N+ICHf7W4NGR0dj29athaan12/efMpvFRoOAyEAGEo557T7E3/4mznSNaXXwonbsGF9bNtW7Hjg22666b3vzzl7szRDyf/YDJ1du3Z1u53mgxHxs6XXwvKYnZ2Lvfv2Rc5FduQ/MjFx8Gd37txZ5FrFsFIEAENl165dp3Y77R9E5J8qvRaW1/z8fDyyd1+0bTvw2TnHraeccvCNb3nLzpmBD4cVIgAYGp/85MfOa5r0x5Hzi0qvhZXR7/fjkb37YnFxscT4r/d68VPvfOcNd5cYDstNADAUdu/+w9fknP4gcpxeei2srLZtY3z//iInBCLikZzz1ddd94u3lRgOy0kAsKZ9+MMfHjvttLGdkeOG8KbWqszMzsT4vgPR5oG/JJAj8of6/XTdDTfccHDQw2G5CADWrN27/vAVuZN+NyKeX3otlNHvNzG+f3/MFbh0cM7xzW43veWaa37hSwMfDstAALDm3HrrH5wVufdfIuLq8P8w8egpgfH9B6JpBv9G/ZzTn+ac3nb99dffO/DhcBJ882TN2L3797flvO66yPmdEWlj6fWwuuScY3r6YExOTUXTNIMeP5Vz/kBE76brrrtufNDD4UQIAFa9T33qY2f3F+IdkfI7PPFzLI+HwNT0dPT7A98RmMw535zSyH+99tprHxz0cDgeAoBVaefOnZ0XvvB5r+qk9NaIfElE9EqvibVndnYupg9Ox+zswN8jsBiRPhmRf3di4uCenTt3Dv7iBXAMAoBV49Of/vTo3NyBl7dtuixF/FREnFl6TQyHpm1jbnY2ZmZnY25uIfJgTw48GBGfjIjd3e7oF9/1rnfND3I4HIkAoIhbbrnltPXre8/OuX12SumHI8e/iIgfiYjR0mtj+C0sLMT8/HzMLyxEv99Ef7E/kOOEKcVczvH/Ukpfatv8lZTyXQsL+c73vOc9Uys+HJ5EABRw0003XpRSXNq2neellJ8WFZxf73S627rdztNyzt1OSt1wK2pWme/fZSDnyPHoBYcGeNnhJufcRKTxlOJ7ETHwdzEW0OacHup02jtS6u6+5prr/0/pBdVGAAzQzTff+Ky27Xwo5/yq0msBWGU+G9H799dee+13Si+kFgJgQD7wgfe9qG3zX0TEttJrAVil9kbkf3Xttb/4t6UXUgMBMADve9/7Tu9281cj4pzSawFY5e4bGVn8oXe845f3lV7IsBv6155Xg04n/2p48gdYinMXF3u/WnoRNbADsMJuvvnm0aaZfyQiXMAGYGmmJyYObt+5c+fgb/JQETsAK6xp5l8WnvwBjsepmzefemHpRQw7AbDi0nmlVwCw9uSnl17BsBMAK+zRs70AHI+2jcHf2rEyAmCFdbude0qvAWCtydn3zpUmAFbY/v1Tfx0RjrMALN3e884778ulFzHsBMAK27lzZz8ifqv0OgDWkJuvuOIKL5+uMAEwAP1+vC/n+GbpdQCsAX/f78dvlF5EDVwHYEBuuummZ0b0b4uIZ5VeC8AqdVevF69+5ztvuLv0QmpgB2BArr322u+MjCy+JKX4cNRxpy+ApWpyjt/LufsST/6DYweggA984NefnnP33+Scnh8RZ5ReD0AhD6eUb0+p+ZNrrvml75ZeDAAAAAAAAAAAAAAAAAAAAAAAAAAAAMAy+v+gWFNBngjy6AAAAABJRU5ErkJggg==;sketch=1;rounded=0;" parent="1" vertex="1">
          <mxGeometry x="390" y="281" width="72" height="72" as="geometry" />
        </mxCell>
        <mxCell id="462g3XgbdRgyeNSREBQg-5" value="&lt;b&gt;&lt;font style=&quot;font-size: 14px;&quot;&gt;ALICE&lt;/font&gt;&lt;/b&gt;" style="text;html=1;align=center;verticalAlign=middle;resizable=0;points=[];autosize=1;strokeColor=none;fillColor=none;sketch=1;rounded=0;" parent="1" vertex="1">
          <mxGeometry x="199" y="111" width="70" height="30" as="geometry" />
        </mxCell>
        <mxCell id="462g3XgbdRgyeNSREBQg-6" value="&lt;b&gt;BOB&lt;/b&gt;" style="text;html=1;align=center;verticalAlign=middle;resizable=0;points=[];autosize=1;strokeColor=none;fillColor=none;fontSize=14;sketch=1;rounded=0;" parent="1" vertex="1">
          <mxGeometry x="322" y="189" width="50" height="30" as="geometry" />
        </mxCell>
        <mxCell id="462g3XgbdRgyeNSREBQg-7" value="&lt;b&gt;CHARLIE&lt;/b&gt;" style="text;html=1;align=center;verticalAlign=middle;resizable=0;points=[];autosize=1;strokeColor=none;fillColor=none;fontSize=14;sketch=1;rounded=0;" parent="1" vertex="1">
          <mxGeometry x="459" y="330" width="90" height="30" as="geometry" />
        </mxCell>
        <mxCell id="462g3XgbdRgyeNSREBQg-9" value="" style="rhombus;whiteSpace=wrap;html=1;labelBackgroundColor=#FFFFFF;fontSize=14;fontColor=#ffffff;fillColor=#6a00ff;strokeColor=#3700CC;fillStyle=dots;sketch=1;rounded=0;" parent="1" vertex="1">
          <mxGeometry x="182" y="158" width="30" height="31" as="geometry" />
        </mxCell>
        <mxCell id="462g3XgbdRgyeNSREBQg-10" value="" style="rhombus;whiteSpace=wrap;html=1;labelBackgroundColor=#FFFFFF;fontSize=14;fontColor=#ffffff;fillColor=#6a00ff;strokeColor=#3700CC;fillStyle=dots;sketch=1;rounded=0;" parent="1" vertex="1">
          <mxGeometry x="269" y="250" width="30" height="31" as="geometry" />
        </mxCell>
        <mxCell id="462g3XgbdRgyeNSREBQg-11" value="" style="rhombus;whiteSpace=wrap;html=1;labelBackgroundColor=#FFFFFF;fontSize=14;fontColor=#ffffff;fillColor=#6a00ff;strokeColor=default;fillStyle=dots;sketch=1;rounded=0;" parent="1" vertex="1">
          <mxGeometry x="399" y="390" width="30" height="31" as="geometry" />
        </mxCell>
        <mxCell id="462g3XgbdRgyeNSREBQg-12" value="" style="rhombus;whiteSpace=wrap;html=1;labelBackgroundColor=#FFFFFF;fontSize=14;fontColor=#000000;fillColor=#e3c800;strokeColor=#B09500;fillStyle=dots;sketch=1;rounded=0;" parent="1" vertex="1">
          <mxGeometry x="429" y="390" width="30" height="31" as="geometry" />
        </mxCell>
        <mxCell id="462g3XgbdRgyeNSREBQg-14" value="" style="rhombus;whiteSpace=wrap;html=1;labelBackgroundColor=#FFFFFF;fontSize=14;fontColor=#000000;fillColor=#e3c800;strokeColor=#B09500;fillStyle=dots;sketch=1;rounded=0;" parent="1" vertex="1">
          <mxGeometry x="299" y="250" width="30" height="31" as="geometry" />
        </mxCell>
        <mxCell id="462g3XgbdRgyeNSREBQg-21" value="" style="endArrow=none;html=1;rounded=0;fontSize=14;fontColor=#CC6600;exitX=1;exitY=1;exitDx=0;exitDy=0;entryX=0;entryY=0;entryDx=0;entryDy=0;sketch=1;" parent="1" source="462g3XgbdRgyeNSREBQg-9" target="462g3XgbdRgyeNSREBQg-10" edge="1">
          <mxGeometry width="50" height="50" relative="1" as="geometry">
            <mxPoint x="190" y="170" as="sourcePoint" />
            <mxPoint x="280" y="260" as="targetPoint" />
          </mxGeometry>
        </mxCell>
        <mxCell id="462g3XgbdRgyeNSREBQg-25" value="" style="endArrow=none;html=1;rounded=0;fontSize=14;fontColor=#CC6600;exitX=1;exitY=1;exitDx=0;exitDy=0;entryX=0;entryY=0;entryDx=0;entryDy=0;sketch=1;" parent="1" edge="1">
          <mxGeometry width="50" height="50" relative="1" as="geometry">
            <mxPoint x="292.5" y="273.25" as="sourcePoint" />
            <mxPoint x="407.5" y="397.75" as="targetPoint" />
          </mxGeometry>
        </mxCell>
        <mxCell id="462g3XgbdRgyeNSREBQg-28" value="&lt;b&gt;&lt;font color=&quot;#ff8000&quot; style=&quot;font-size: 24px;&quot;&gt;b&lt;/font&gt;&lt;/b&gt;" style="text;html=1;align=center;verticalAlign=middle;resizable=0;points=[];autosize=1;strokeColor=none;fillColor=none;fontSize=20;fontFamily=Architects Daughter;rounded=0;" parent="1" vertex="1">
          <mxGeometry x="65" y="60" width="40" height="40" as="geometry" />
        </mxCell>
        <mxCell id="462g3XgbdRgyeNSREBQg-29" value="&lt;font color=&quot;#1f0f00&quot;&gt;&lt;b&gt;|ẞ&lt;font style=&quot;font-size: 28px;&quot;&gt;&amp;gt;&lt;/font&gt;&lt;/b&gt;&lt;/font&gt;" style="text;html=1;align=center;verticalAlign=middle;resizable=0;points=[];autosize=1;strokeColor=none;fillColor=none;fontSize=24;fontFamily=Architects Daughter;fontColor=#FF8000;rounded=0;" parent="1" vertex="1">
          <mxGeometry x="462" y="380.5" width="60" height="50" as="geometry" />
        </mxCell>
        <mxCell id="462g3XgbdRgyeNSREBQg-30" value="" style="rhombus;whiteSpace=wrap;html=1;labelBackgroundColor=#FFFFFF;fontSize=14;fontColor=#ffffff;fillColor=#6a00ff;strokeColor=#3700CC;fillStyle=dots;sketch=1;rounded=0;" parent="1" vertex="1">
          <mxGeometry x="600" y="50" width="30" height="31" as="geometry" />
        </mxCell>
        <mxCell id="462g3XgbdRgyeNSREBQg-31" value="" style="rhombus;whiteSpace=wrap;html=1;labelBackgroundColor=#FFFFFF;fontSize=14;fontColor=#000000;fillColor=#e3c800;strokeColor=#B09500;fillStyle=dots;sketch=1;rounded=0;" parent="1" vertex="1">
          <mxGeometry x="600" y="100" width="30" height="31" as="geometry" />
        </mxCell>
        <mxCell id="462g3XgbdRgyeNSREBQg-32" value="Haberleşme Kübiti" style="text;html=1;align=center;verticalAlign=middle;resizable=0;points=[];autosize=1;strokeColor=none;fillColor=none;fontSize=15;fontFamily=Architects Daughter;fontColor=#1F0F00;rounded=0;" parent="1" vertex="1">
          <mxGeometry x="630" y="50" width="140" height="30" as="geometry" />
        </mxCell>
        <mxCell id="462g3XgbdRgyeNSREBQg-33" value="Hafıza Kübiti" style="text;html=1;align=center;verticalAlign=middle;resizable=0;points=[];autosize=1;strokeColor=none;fillColor=none;fontSize=15;fontFamily=Architects Daughter;fontColor=#1F0F00;rounded=0;" parent="1" vertex="1">
          <mxGeometry x="630" y="100" width="110" height="30" as="geometry" />
        </mxCell>
        <mxCell id="MSe4pkzpMm800M5lCLbA-21" value="" style="endArrow=classic;html=1;strokeWidth=1;opacity=40;curved=1;sketch=0;shadow=1;" parent="1" edge="1">
          <mxGeometry width="50" height="50" relative="1" as="geometry">
            <mxPoint x="440" y="430" as="sourcePoint" />
            <mxPoint x="190" y="190" as="targetPoint" />
            <Array as="points">
              <mxPoint x="440" y="460" />
              <mxPoint x="370" y="410" />
              <mxPoint x="300" y="510" />
              <mxPoint x="290" y="360" />
              <mxPoint x="220" y="410" />
              <mxPoint x="200" y="390" />
              <mxPoint x="210" y="300" />
              <mxPoint x="90" y="340" />
              <mxPoint x="170" y="240" />
              <mxPoint x="80" y="210" />
            </Array>
          </mxGeometry>
        </mxCell>
        <mxCell id="MSe4pkzpMm800M5lCLbA-22" value="" style="endArrow=classic;html=1;strokeWidth=1;opacity=40;curved=1;entryX=0.5;entryY=1;entryDx=0;entryDy=0;" parent="1" target="462g3XgbdRgyeNSREBQg-12" edge="1">
          <mxGeometry width="50" height="50" relative="1" as="geometry">
            <mxPoint x="190" y="190" as="sourcePoint" />
            <mxPoint x="470" y="450" as="targetPoint" />
            <Array as="points">
              <mxPoint x="150" y="160" />
              <mxPoint x="180" y="220" />
              <mxPoint x="100" y="240" />
              <mxPoint x="100" y="280" />
              <mxPoint x="180" y="270" />
              <mxPoint x="150" y="400" />
              <mxPoint x="260" y="320" />
              <mxPoint x="240" y="460" />
              <mxPoint x="340" y="400" />
              <mxPoint x="390" y="520" />
            </Array>
          </mxGeometry>
        </mxCell>
      </root>
    </mxGraphModel>
  </diagram>
</mxfile>
